<svg width="93" height="37" viewBox="0 0 93 37" fill="none" xmlns="http://www.w3.org/2000/svg">
<path d="M4 19H28" stroke="#0066CC" stroke-width="8" stroke-linecap="round"/>
<path d="M84.9878 13.324C90.3818 13.324 92.1178 16.734 92.1178 21.694C92.1178 26.654 90.3818 29.94 84.9878 29.94C79.5938 29.94 77.8578 26.654 77.8578 21.694C77.8578 16.734 79.5938 13.324 84.9878 13.324ZM82.0738 21.694C82.0738 24.887 82.6938 26.406 84.9878 26.406C87.2818 26.406 87.9018 24.887 87.9018 21.694C87.9018 18.501 87.2818 16.858 84.9878 16.858C82.6938 16.858 82.0738 18.501 82.0738 21.694Z" fill="var(--filo-color-text, black)"/>
<path d="M72.7777 24.143C72.7777 25.693 72.8087 26.406 73.8007 26.406C74.6687 26.406 75.4747 26.344 75.4747 26.344L75.6607 29.599C75.6607 29.599 74.2347 30.064 73.1497 30.064C69.7087 30.064 68.6237 28.638 68.6237 25.166V7H72.7777V24.143Z" fill="var(--filo-color-text, black)"/>
<path d="M60.0425 13.82H64.1965V29.63H60.0425V13.82ZM60.0425 12.146V7.93001H64.1965V12.146H60.0425Z" fill="var(--filo-color-text, black)"/>
<path d="M43.232 7.62001H56.686V11.34H47.51V29.63H43.232V7.62001Z M43.232 7.62001H56.686V11.34H47.51V17.85H55.012V21.57H47.51V29.63H43.232V7.62001Z" fill="var(--filo-color-text, black)"/>
</svg>